<?xml version="1.0" standalone="no"?>
<!DOCTYPE svg PUBLIC "-//W3C//DTD SVG 20010904//EN"
 "http://www.w3.org/TR/2001/REC-SVG-20010904/DTD/svg10.dtd">
<svg version="1.0" xmlns="http://www.w3.org/2000/svg"
 width="256.000000pt" height="256.000000pt" viewBox="0 0 256.000000 256.000000"
 preserveAspectRatio="xMidYMid meet">

<g transform="translate(0.000000,256.000000) scale(0.100000,-0.100000)"
fill="#000000" stroke="none">
<path d="M0 1280 l0 -1280 219 0 220 0 -16 37 c-8 21 -16 65 -16 98 -1 89 39
163 123 232 68 56 76 61 158 105 l51 28 -39 -82 c-22 -45 -40 -87 -40 -94 0
-7 -15 -66 -34 -131 -43 -151 -49 -193 -31 -193 8 0 18 16 23 38 47 189 70
264 111 344 53 107 46 104 176 69 49 -13 138 -25 229 -32 83 -5 156 -14 163
-20 9 -8 22 -5 46 10 45 27 47 27 47 -11 0 -73 68 -170 154 -222 l37 -22 -40
-35 c-21 -20 -48 -54 -60 -77 l-21 -42 550 0 550 0 0 1280 0 1280 -736 0 -737
0 27 -25 c70 -65 85 -175 37 -261 -17 -28 -28 -54 -25 -56 2 -3 -4 -11 -13
-19 -16 -12 -17 -12 -8 1 6 9 1 6 -10 -6 -18 -21 -28 -22 -122 -21 -95 2 -104
4 -144 32 -113 79 -121 247 -17 329 l33 26 -422 0 -423 0 0 -1280z m1337 610
c248 -52 328 -73 408 -109 43 -19 48 -24 34 -34 -14 -11 -49 -68 -49 -81 0 -3
11 5 23 18 35 35 153 60 223 47 87 -17 149 -49 204 -107 108 -114 126 -215 68
-377 -24 -65 -85 -128 -145 -148 -34 -11 -97 -9 -138 6 -17 6 -16 3 5 -15 22
-20 33 -22 93 -17 l67 4 0 -53 c0 -31 -4 -54 -10 -54 -6 0 -10 -6 -9 -12 2
-15 -3 -31 -43 -118 -16 -35 -40 -79 -54 -97 -26 -34 -31 -48 -12 -37 7 4 8 3
4 -5 -4 -6 -11 -9 -15 -7 -4 3 -21 -8 -36 -24 -16 -16 -45 -41 -66 -56 l-37
-26 -42 42 c-23 23 -56 48 -74 55 -33 14 -47 34 -66 96 -14 48 -42 76 -87 88
-60 17 -79 12 -135 -38 -42 -37 -48 -75 -27 -182 10 -48 9 -61 -7 -90 -9 -19
-20 -47 -24 -64 -8 -41 -41 -55 -135 -55 -201 0 -484 72 -640 163 -96 56 -205
162 -244 240 -31 62 -71 220 -71 286 0 108 130 412 223 517 102 116 273 201
478 238 90 16 270 20 336 6z m-767 -127 c-80 -61 -119 -112 -185 -247 -38 -75
-69 -136 -69 -136 -1 0 -1 26 0 58 3 126 90 264 204 322 70 36 95 37 50 3z
m1023 -971 c9 -9 24 -39 33 -68 16 -57 32 -75 85 -97 80 -33 138 -122 139
-213 0 -67 -50 -169 -99 -201 -47 -32 -128 -31 -196 1 -61 28 -87 56 -116 120
-21 48 -22 60 -18 205 1 15 4 20 9 12 5 -9 14 -2 30 23 23 38 46 55 95 67 23
6 19 7 -18 4 -26 -2 -59 -11 -73 -20 l-26 -17 6 49 c9 64 15 83 39 116 32 47
70 53 110 19z m-166 -89 c-3 -10 -5 -2 -5 17 0 19 2 27 5 18 2 -10 2 -26 0
-35z"/>
<path d="M554 1485 c-44 -45 -66 -109 -68 -202 -1 -78 1 -85 24 -104 59 -46
151 4 148 81 -1 22 6 50 16 66 27 40 18 140 -13 165 -33 27 -77 24 -107 -6z"/>
<path d="M1199 1248 c-9 -7 -19 -20 -22 -30 -5 -15 3 -16 87 -11 101 6 146 -3
208 -43 20 -13 40 -19 43 -14 8 12 -60 56 -125 81 -69 26 -169 35 -191 17z"/>
<path d="M664 925 c29 -30 116 -50 277 -64 97 -9 191 0 197 19 2 6 11 17 19
26 8 8 14 16 12 18 -2 2 -31 -3 -64 -10 -92 -20 -311 -16 -388 7 -75 23 -72
23 -53 4z"/>
<path d="M1265 390 c-3 -6 1 -7 9 -4 18 7 21 14 7 14 -6 0 -13 -4 -16 -10z"/>
</g>
</svg>
